<?xml version="1.0" encoding="UTF-8"?>
<svg version="1.1" xmlns="http://www.w3.org/2000/svg" width="100" height="100">
<path d="M0 0 C4.28303777 0.5727815 6.04223389 3.64399444 8.6875 6.8125 C12.16901146 10.94521073 14.93692903 12.68592187 20.375 13.328125 C25.58563508 13.64881331 30.78656858 13.6211152 36 13.375 C36.495 14.365 36.495 14.365 37 15.375 C37.33 15.375 37.66 15.375 38 15.375 C37.97268799 15.95354736 37.94537598 16.53209473 37.91723633 17.12817383 C37.0461793 29.2789555 37.0461793 29.2789555 41.515625 40.04296875 C43.45071842 41.99075339 45.43131497 43.53906239 47.62890625 45.21875 C50 47.375 50 47.375 50.7421875 49.82421875 C49.80239914 53.05412295 48.03196833 54.2171333 45.42651367 56.2199707 C41.08369667 59.63905034 37.62188904 62.80577306 36.28613281 68.32421875 C35.48145786 75.32763646 35.59691961 82.34558745 36 89.375 C35.13217896 89.33403198 35.13217896 89.33403198 34.24682617 89.29223633 C22.0960445 88.4211793 22.0960445 88.4211793 11.33203125 92.890625 C9.38424661 94.82571842 7.83593761 96.80631497 6.15625 99.00390625 C4 101.375 4 101.375 1.5234375 102.08984375 C-1.59395391 101.20674371 -2.63713111 99.63814024 -4.54003906 97.10644531 C-7.69448811 93.0151226 -10.58801381 89.86395018 -15.80371094 88.80664062 C-22.55052068 88.30845398 -29.27636066 88.70844704 -36 89.375 C-35.96221436 88.71604736 -35.92442871 88.05709473 -35.88549805 87.37817383 C-34.84052358 73.37266202 -34.84052358 73.37266202 -39.9609375 60.88671875 C-43.02801097 57.66299254 -46.37988093 54.95288729 -50 52.375 C-48.91248218 49.48363525 -47.93402632 48.32479172 -45.43359375 46.421875 C-40.95049252 42.98502555 -37.60918495 40.2284223 -36.38964844 34.51611328 C-35.65338741 27.48299591 -35.71199491 20.43409822 -36 13.375 C-35.42145264 13.40231201 -34.84290527 13.42962402 -34.24682617 13.45776367 C-22.12420878 14.35803189 -22.12420878 14.35803189 -11.4375 9.859375 C-9.57806297 7.93257391 -7.91806116 5.89086446 -6.19921875 3.83203125 C-4.05843141 1.44028128 -3.1404919 0.41998594 0 0 Z " fill="#2A4646" transform="translate(50,-1.375)"/>
<path d="M0 0 C4.28303777 0.5727815 6.04223389 3.64399444 8.6875 6.8125 C12.16901146 10.94521073 14.93692903 12.68592187 20.375 13.328125 C25.58563508 13.64881331 30.78656858 13.6211152 36 13.375 C36.495 14.365 36.495 14.365 37 15.375 C37.33 15.375 37.66 15.375 38 15.375 C37.97268799 15.95354736 37.94537598 16.53209473 37.91723633 17.12817383 C37.0461793 29.2789555 37.0461793 29.2789555 41.515625 40.04296875 C43.45071842 41.99075339 45.43131497 43.53906239 47.62890625 45.21875 C50 47.375 50 47.375 50.7421875 49.82421875 C49.80239914 53.05412295 48.03196833 54.2171333 45.42651367 56.2199707 C41.08369667 59.63905034 37.62188904 62.80577306 36.28613281 68.32421875 C35.48145786 75.32763646 35.59691961 82.34558745 36 89.375 C35.13217896 89.33403198 35.13217896 89.33403198 34.24682617 89.29223633 C22.0960445 88.4211793 22.0960445 88.4211793 11.33203125 92.890625 C9.38424661 94.82571842 7.83593761 96.80631497 6.15625 99.00390625 C4 101.375 4 101.375 1.5234375 102.08984375 C-1.59395391 101.20674371 -2.63713111 99.63814024 -4.54003906 97.10644531 C-7.69448811 93.0151226 -10.58801381 89.86395018 -15.80371094 88.80664062 C-22.55052068 88.30845398 -29.27636066 88.70844704 -36 89.375 C-35.96221436 88.71604736 -35.92442871 88.05709473 -35.88549805 87.37817383 C-34.84052358 73.37266202 -34.84052358 73.37266202 -39.9609375 60.88671875 C-43.02801097 57.66299254 -46.37988093 54.95288729 -50 52.375 C-48.91248218 49.48363525 -47.93402632 48.32479172 -45.43359375 46.421875 C-40.95049252 42.98502555 -37.60918495 40.2284223 -36.38964844 34.51611328 C-35.65338741 27.48299591 -35.71199491 20.43409822 -36 13.375 C-35.42145264 13.40231201 -34.84290527 13.42962402 -34.24682617 13.45776367 C-22.12420878 14.35803189 -22.12420878 14.35803189 -11.4375 9.859375 C-9.57806297 7.93257391 -7.91806116 5.89086446 -6.19921875 3.83203125 C-4.05843141 1.44028128 -3.1404919 0.41998594 0 0 Z M-1 12.375 C-2.36062855 14.01549525 -3.71337031 15.66253521 -5.0625 17.3125 C-9.82195561 22.28224083 -13.30966991 23.31346323 -20.125 23.5 C-22.76185169 23.53058737 -25.3632697 23.47900096 -28 23.375 C-27.95617188 24.48617188 -27.91234375 25.59734375 -27.8671875 26.7421875 C-27.75532489 39.34018303 -27.75532489 39.34018303 -31.29296875 43.73046875 C-33.75886675 46.14071884 -36.22782147 48.32731096 -39 50.375 C-37.56799748 53.83129928 -35.87443381 55.31849068 -32.9375 57.5625 C-28.51589389 61.74423598 -28.20660075 65.57161494 -28 71.375 C-27.9422043 74.04825831 -27.95137187 76.70045271 -28 79.375 C-26.88882812 79.33117187 -25.77765625 79.28734375 -24.6328125 79.2421875 C-12.03481697 79.13032489 -12.03481697 79.13032489 -7.64453125 82.66796875 C-5.23428116 85.13386675 -3.04768904 87.60282147 -1 90.375 C2.45629928 88.94299748 3.94349068 87.24943381 6.1875 84.3125 C10.36923598 79.89089389 14.19661494 79.58160075 20 79.375 C22.67325831 79.3172043 25.32545271 79.32637187 28 79.375 C27.95617187 78.26382813 27.91234375 77.15265625 27.8671875 76.0078125 C27.75532489 63.40981697 27.75532489 63.40981697 31.29296875 59.01953125 C33.75886675 56.60928116 36.22782147 54.42268904 39 52.375 C37.56799748 48.91870072 35.87443381 47.43150932 32.9375 45.1875 C28.51589389 41.00576402 28.20660075 37.17838506 28 31.375 C27.9422043 28.70174169 27.95137187 26.04954729 28 23.375 C26.88882813 23.41882812 25.77765625 23.46265625 24.6328125 23.5078125 C11.99896526 23.62001868 11.99896526 23.62001868 7.71484375 20.08203125 C5.0625 17.3125 5.0625 17.3125 2.78515625 14.52734375 C2.19605469 13.81707031 1.60695312 13.10679688 1 12.375 C0.34 12.375 -0.32 12.375 -1 12.375 Z " fill="#0C3A95" transform="translate(50,-1.375)"/>
<path d="M0 0 C3.45629928 1.43200252 4.94349068 3.12556619 7.1875 6.0625 C11.36923598 10.48410611 15.19661494 10.79339925 21 11 C23.67325831 11.0577957 26.32545271 11.04862813 29 11 C28.95617187 12.11117188 28.91234375 13.22234375 28.8671875 14.3671875 C28.58317552 23.41616996 28.58317552 23.41616996 32.29296875 31.35546875 C34.75886675 33.76571884 37.22782147 35.95231096 40 38 C38.56799748 41.45629928 36.87443381 42.94349068 33.9375 45.1875 C29.51589389 49.36923598 29.20660075 53.19661494 29 59 C28.9422043 61.67325831 28.95137187 64.32545271 29 67 C27.33324219 66.93425781 27.33324219 66.93425781 25.6328125 66.8671875 C16.58383004 66.58317552 16.58383004 66.58317552 8.64453125 70.29296875 C6.23428116 72.75886675 4.04768904 75.22782147 2 78 C-1.45629928 76.56799748 -2.94349068 74.87443381 -5.1875 71.9375 C-9.36923598 67.51589389 -13.19661494 67.20660075 -19 67 C-21.67325831 66.9422043 -24.32545271 66.95137187 -27 67 C-26.95617188 65.88882813 -26.91234375 64.77765625 -26.8671875 63.6328125 C-26.58317552 54.58383004 -26.58317552 54.58383004 -30.29296875 46.64453125 C-32.75886675 44.23428116 -35.22782147 42.04768904 -38 40 C-36.56799748 36.54370072 -34.87443381 35.05650932 -31.9375 32.8125 C-27.51589389 28.63076402 -27.20660075 24.80338506 -27 19 C-26.9422043 16.32674169 -26.95137187 13.67454729 -27 11 C-25.88882812 11.04382812 -24.77765625 11.08765625 -23.6328125 11.1328125 C-14.58383004 11.41682448 -14.58383004 11.41682448 -6.64453125 7.70703125 C-4.23428116 5.24113325 -2.04768904 2.77217853 0 0 Z M-22 22 C-26.46392641 28.98370969 -28.27378757 35.7739513 -27 44 C-24.90506976 51.99350478 -21.26243014 58.18542314 -14.33203125 62.76171875 C-6.54182923 67.0851297 -0.02035292 68.58894945 8.6640625 66.296875 C17.43978514 63.16836965 22.67252032 58.38647716 27.0546875 50.24609375 C30.12196987 42.95812944 29.91579404 34.6117682 27.1640625 27.26953125 C23.56018255 20.24317471 18.3991231 15.50037876 11.078125 12.65625 C-1.37531216 8.72358563 -13.44913273 11.78067082 -22 22 Z " fill="#F3F7F7" transform="translate(49,11)"/>
<path d="M0 0 C3.87355007 1.51649052 5.51640426 3.85099993 8.0625 7.0625 C13.02338357 12.2628229 17.04918169 12.94077829 24.125 13.125 C27.09387962 13.15619905 30.03118646 13.10363415 33 13 C32.93296875 14.23234375 32.8659375 15.4646875 32.796875 16.734375 C32.54615533 28.18079722 32.54615533 28.18079722 38.36230469 37.62792969 C40.82556188 39.8874482 43.33209048 41.98397787 46 44 C44.48350948 47.87355007 42.14900007 49.51640426 38.9375 52.0625 C33.7371771 57.02338357 33.05922171 61.04918169 32.875 68.125 C32.84380095 71.09387962 32.89636585 74.03118646 33 77 C31.76765625 76.93296875 30.5353125 76.8659375 29.265625 76.796875 C17.81920278 76.54615533 17.81920278 76.54615533 8.37207031 82.36230469 C6.1125518 84.82556188 4.01602213 87.33209048 2 90 C-1.87355007 88.48350948 -3.51640426 86.14900007 -6.0625 82.9375 C-11.02338357 77.7371771 -15.04918169 77.05922171 -22.125 76.875 C-25.09387962 76.84380095 -28.03118646 76.89636585 -31 77 C-30.93296875 75.76765625 -30.8659375 74.5353125 -30.796875 73.265625 C-30.54615533 61.81920278 -30.54615533 61.81920278 -36.36230469 52.37207031 C-38.82556188 50.1125518 -41.33209048 48.01602213 -44 46 C-42.48350948 42.12644993 -40.14900007 40.48359574 -36.9375 37.9375 C-31.7371771 32.97661643 -31.05922171 28.95081831 -30.875 21.875 C-30.84380095 18.90612038 -30.89636585 15.96881354 -31 13 C-29.76765625 13.06703125 -28.5353125 13.1340625 -27.265625 13.203125 C-15.81920278 13.45384467 -15.81920278 13.45384467 -6.37207031 7.63769531 C-4.1125518 5.17443812 -2.01602213 2.66790952 0 0 Z M0 6 C-1.36062855 7.64049525 -2.71337031 9.28753521 -4.0625 10.9375 C-8.82195561 15.90724083 -12.30966991 16.93846323 -19.125 17.125 C-21.76185169 17.15558737 -24.3632697 17.10400096 -27 17 C-26.95617188 18.11117188 -26.91234375 19.22234375 -26.8671875 20.3671875 C-26.75532489 32.96518303 -26.75532489 32.96518303 -30.29296875 37.35546875 C-32.75886675 39.76571884 -35.22782147 41.95231096 -38 44 C-36.56799748 47.45629928 -34.87443381 48.94349068 -31.9375 51.1875 C-27.51589389 55.36923598 -27.20660075 59.19661494 -27 65 C-26.9422043 67.67325831 -26.95137187 70.32545271 -27 73 C-25.88882812 72.95617187 -24.77765625 72.91234375 -23.6328125 72.8671875 C-11.03481697 72.75532489 -11.03481697 72.75532489 -6.64453125 76.29296875 C-4.23428116 78.75886675 -2.04768904 81.22782147 0 84 C3.45629928 82.56799748 4.94349068 80.87443381 7.1875 77.9375 C11.36923598 73.51589389 15.19661494 73.20660075 21 73 C23.67325831 72.9422043 26.32545271 72.95137187 29 73 C28.95617187 71.88882813 28.91234375 70.77765625 28.8671875 69.6328125 C28.75532489 57.03481697 28.75532489 57.03481697 32.29296875 52.64453125 C34.75886675 50.23428116 37.22782147 48.04768904 40 46 C38.56799748 42.54370072 36.87443381 41.05650932 33.9375 38.8125 C29.51589389 34.63076402 29.20660075 30.80338506 29 25 C28.9422043 22.32674169 28.95137187 19.67454729 29 17 C27.88882813 17.04382812 26.77765625 17.08765625 25.6328125 17.1328125 C12.99896526 17.24501868 12.99896526 17.24501868 8.71484375 13.70703125 C6.0625 10.9375 6.0625 10.9375 3.78515625 8.15234375 C3.19605469 7.44207031 2.60695312 6.73179688 2 6 C1.34 6 0.68 6 0 6 Z " fill="#C0DBD2" transform="translate(49,5)"/>
<path d="M0 0 C2.46800047 1.15173355 4.04783565 2.04783565 6 4 C8.65537372 4.56520003 11.29144713 4.73788198 14 5 C14.12375 6.8253125 14.12375 6.8253125 14.25 8.6875 C14.73758372 12.78465871 16.09510536 15.00139908 19 18 C18.360625 18.495 17.72125 18.99 17.0625 19.5 C14.18484731 22.98806387 14.29769264 25.53461041 14 30 C12.7625 30.0825 11.525 30.165 10.25 30.25 C7.01117036 30.63475459 6.12092117 30.90024003 3.5 33.0625 C2.7575 34.0215625 2.7575 34.0215625 2 35 C-0.46800047 33.84826645 -2.04783565 32.95216435 -4 31 C-6.65537372 30.43479997 -9.29144713 30.26211802 -12 30 C-12.0825 28.783125 -12.165 27.56625 -12.25 26.3125 C-12.73758372 22.21534129 -14.09510536 19.99860092 -17 17 C-16.360625 16.505 -15.72125 16.01 -15.0625 15.5 C-12.18484731 12.01193613 -12.29769264 9.46538959 -12 5 C-10.7625 4.9175 -9.525 4.835 -8.25 4.75 C-5.01117036 4.36524541 -4.12092117 4.09975997 -1.5 1.9375 C-1.005 1.298125 -0.51 0.65875 0 0 Z " fill="#F8F8F8" transform="translate(49,34)"/>
<path d="M0 0 C4.5461507 3.16058583 8.81352919 6.80713182 11 12 C11.1875 14.8125 11.1875 14.8125 11 17 C9.68 17 8.36 17 7 17 C6.67 17.66 6.34 18.32 6 19 C5.69707031 18.39671875 5.39414063 17.7934375 5.08203125 17.171875 C1.57178386 10.47540306 -1.67276679 6.50172677 -9 4 C-15.49298125 3.12529786 -21.37874312 3.02782532 -27.0625 6.5625 C-30.72987329 9.47482584 -33.7726673 12.37896883 -35 17 C-35.61823381 23.49546956 -35.58387365 28.97096149 -33 35 C-33.25 37.25 -33.25 37.25 -34 39 C-34.99 39.495 -34.99 39.495 -36 40 C-35.67 38.68 -35.34 37.36 -35 36 C-35.99 36 -36.98 36 -38 36 C-38.33 36.66 -38.66 37.32 -39 38 C-43.12232534 31.54766468 -43.99366279 25.60200274 -43 18 C-40.31864036 10.04496992 -36.18308184 3.49929302 -29 -1 C-19.17442433 -5.86033814 -9.64213521 -4.85656884 0 0 Z " fill="#093893" transform="translate(65,26)"/>
<path d="M0 0 C0.33 0 0.66 0 1 0 C1.00386719 1.97033203 1.00386719 1.97033203 1.0078125 3.98046875 C1.04534138 5.71617967 1.08448898 7.45185612 1.125 9.1875 C1.12242188 10.05181641 1.11984375 10.91613281 1.1171875 11.80664062 C1.19063773 16.61574458 1.19063773 16.61574458 3.39355469 20.72900391 C5.19907273 22.29209443 5.19907273 22.29209443 8 24 C8.22609337 21.87635519 8.22609337 21.87635519 6.5 20.375 C6.005 19.92125 5.51 19.4675 5 19 C5.33 18.34 5.66 17.68 6 17 C7.8494376 18.71433258 9.67829108 20.44412009 11.5 22.1875 C12.02464844 22.67025391 12.54929687 23.15300781 13.08984375 23.65039062 C15.32509912 25.81307277 16.85898625 27.52158687 17.74609375 30.53125 C16.79101143 33.6915224 14.98427282 34.87879729 12.42651367 36.8449707 C8.08369667 40.26405034 4.62188904 43.43077306 3.28613281 48.94921875 C2.48145786 55.95263646 2.59691961 62.97058745 3 70 C2.13217896 69.95903198 2.13217896 69.95903198 1.24682617 69.91723633 C-10.9039555 69.0461793 -10.9039555 69.0461793 -21.66796875 73.515625 C-23.61575339 75.45071842 -25.16406239 77.43131497 -26.84375 79.62890625 C-29 82 -29 82 -31.35546875 82.734375 C-35.5268179 81.57600921 -37.87961266 78.76425249 -40.8125 75.6875 C-41.40998047 75.09259766 -42.00746094 74.49769531 -42.62304688 73.88476562 C-47 69.40776786 -47 69.40776786 -47 66 C-52.94 66 -58.88 66 -65 66 C-65 65.67 -65 65.34 -65 65 C-46.7973251 63.08744856 -46.7973251 63.08744856 -41.22265625 67.44921875 C-38.47810405 70.05660763 -36.18417623 72.91409963 -34 76 C-30.10023905 74.48197225 -28.4810458 72.11559737 -25.9375 68.875 C-22.48025127 65.24567102 -20.05071247 63.71260103 -15.12109375 63.34375 C-10.38784576 63.26674344 -5.71154581 63.56464156 -1 64 C-1.13921875 62.76765625 -1.2784375 61.5353125 -1.421875 60.265625 C-2.50934949 46.26014295 -2.50934949 46.26014295 1.671875 41.06640625 C4.54325434 38.06348692 7.6724266 35.48082481 11 33 C9.52010268 29.2921254 7.52205146 27.85779094 4.375 25.5 C0.83425313 22.15186976 -0.28215036 19.71970906 -0.58984375 14.96484375 C-0.66020338 9.96307581 -0.42037267 4.98339223 0 0 Z " fill="#0E3691" transform="translate(83,18)"/>
<path d="M0 0 C4.85030843 2.88562653 8.38107799 7.13345608 10.5 12.375 C11.36165461 19.94954518 11.32729066 27.1726629 6.5 33.375 C4.58904707 35.27663121 2.69177041 36.78098516 0.5 38.375 C0.995 40.85 0.995 40.85 1.5 43.375 C0.84 43.375 0.18 43.375 -0.5 43.375 C-0.5 42.715 -0.5 42.055 -0.5 41.375 C-3.47 41.045 -6.44 40.715 -9.5 40.375 C-6.60782241 35.67521142 -6.60782241 35.67521142 -3.453125 34.8203125 C-1.47669255 34.58902785 0.51256369 34.47437182 2.5 34.375 C2.5825 33.1375 2.665 31.9 2.75 30.625 C3.22178442 26.56479468 4.51122816 25.16452038 7.5 22.375 C7.57642709 20.26350355 7.57642709 20.26350355 6.5 18.375 C5.98953125 17.93671875 5.4790625 17.4984375 4.953125 17.046875 C3.03058229 14.83491726 3.18714405 13.57068687 3.3125 10.6875 C3.35310547 9.47513672 3.35310547 9.47513672 3.39453125 8.23828125 C3.44673828 7.31595703 3.44673828 7.31595703 3.5 6.375 C2.89671875 6.42140625 2.2934375 6.4678125 1.671875 6.515625 C-4.9373928 6.81410806 -4.9373928 6.81410806 -8.0625 4.375 C-8.536875 3.715 -9.01125 3.055 -9.5 2.375 C-11.96800047 3.52673355 -13.54783565 4.42283565 -15.5 6.375 C-18.51826653 6.64740673 -21.46370622 6.46175125 -24.5 6.375 C-24.17 9.675 -23.84 12.975 -23.5 16.375 C-25.15 17.365 -26.8 18.355 -28.5 19.375 C-27.99481236 22.40189417 -27.99481236 22.40189417 -26 24.625 C-23.5451213 27.48902515 -23.80301288 30.67824285 -23.5 34.375 C-22.2625 34.436875 -21.025 34.49875 -19.75 34.5625 C-16.19449876 34.97856929 -15.65360875 35.21755104 -13 37.9375 C-12.505 38.741875 -12.01 39.54625 -11.5 40.375 C-17.0169909 41.22376783 -20.11313623 39.18269087 -24.4453125 36.09765625 C-28.78802976 32.45670889 -31.18437791 28.25954618 -31.80859375 22.5546875 C-32.07982719 15.6012485 -31.72130448 10.8034648 -27.31640625 5.25390625 C-19.90778302 -2.40963734 -10.04057171 -4.50684753 0 0 Z " fill="#329469" transform="translate(60.5,30.625)"/>
<path d="M0 0 C0.98291016 0.04833984 1.96582031 0.09667969 2.97851562 0.14648438 C4.51475586 0.2305957 4.51475586 0.2305957 6.08203125 0.31640625 C7.11779297 0.36861328 8.15355469 0.42082031 9.22070312 0.47460938 C11.77895174 0.60429018 14.33681063 0.73925603 16.89453125 0.87890625 C17.22453125 1.53890625 17.55453125 2.19890625 17.89453125 2.87890625 C18.22453125 2.87890625 18.55453125 2.87890625 18.89453125 2.87890625 C18.89453125 10.79890625 18.89453125 18.71890625 18.89453125 26.87890625 C19.55453125 26.87890625 20.21453125 26.87890625 20.89453125 26.87890625 C20.89453125 27.53890625 20.89453125 28.19890625 20.89453125 28.87890625 C21.55453125 28.87890625 22.21453125 28.87890625 22.89453125 28.87890625 C22.56453125 29.86890625 22.23453125 30.85890625 21.89453125 31.87890625 C21.04568359 31.22921875 21.04568359 31.22921875 20.1796875 30.56640625 C19.07947266 29.73109375 19.07947266 29.73109375 17.95703125 28.87890625 C17.22613281 28.32203125 16.49523437 27.76515625 15.7421875 27.19140625 C14.13638757 25.7823868 14.13638757 25.7823868 12.89453125 25.87890625 C12.89453125 19.60890625 12.89453125 13.33890625 12.89453125 6.87890625 C6.77632961 6.9973687 6.77632961 6.9973687 0.65893555 7.14916992 C-0.4870813 7.16040894 -0.4870813 7.16040894 -1.65625 7.171875 C-2.43653564 7.18758545 -3.21682129 7.2032959 -4.02075195 7.21948242 C-6.60450728 6.79737929 -7.46839042 5.86400683 -9.10546875 3.87890625 C-8.77546875 2.88890625 -8.44546875 1.89890625 -8.10546875 0.87890625 C-5.02085369 -0.14929877 -3.20861636 -0.16692224 0 0 Z " fill="#1A449C" transform="translate(69.10546875,11.12109375)"/>
<path d="M0 0 C3.67466265 1.47794124 5.1812031 3.46532261 7.5625 6.5625 C11.53107219 10.7455896 14.64405566 11.57199102 20.1796875 11.9921875 C24.1186211 12.08825905 28.05999131 12.02755251 32 12 C32 17.94 32 23.88 32 30 C31.67 30 31.34 30 31 30 C31 24.39 31 18.78 31 13 C29.80658248 13.97332261 29.80658248 13.97332261 29.88647461 15.76586914 C29.89171143 16.51473389 29.89694824 17.26359863 29.90234375 18.03515625 C29.90556641 18.84404297 29.90878906 19.65292969 29.91210938 20.48632812 C29.92048828 21.33646484 29.92886719 22.18660156 29.9375 23.0625 C29.94201172 23.91650391 29.94652344 24.77050781 29.95117188 25.65039062 C29.96299627 27.76695663 29.98093231 29.88348685 30 32 C29.67 32 29.34 32 29 32 C29 26.39 29 20.78 29 15 C26.40125 15.20625 23.8025 15.4125 21.125 15.625 C16.38726339 15.81082914 12.47658495 15.81474996 8.64453125 12.7734375 C6.22011388 10.28954669 4.03951452 7.80621162 2 5 C-1.48685324 6.43709787 -2.94495716 8.15269856 -5.1875 11.125 C-8.77099646 14.89279057 -11.53686557 15.52131218 -16.53637695 15.65576172 C-26.47496826 15.52503174 -26.47496826 15.52503174 -29 13 C-29 18.61 -29 24.22 -29 30 C-29.33 30 -29.66 30 -30 30 C-30 24.06 -30 18.12 -30 12 C-27.091875 12.061875 -24.18375 12.12375 -21.1875 12.1875 C-14.86712531 12.08585497 -10.40417142 11.4590187 -5.72973633 6.99536133 C-3.68120169 4.74356124 -1.80074271 2.45629399 0 0 Z " fill="#4CA27A" transform="translate(49,7)"/>
<path d="M0 0 C5.61 0 11.22 0 17 0 C16.9175 2.5575 16.835 5.115 16.75 7.75 C16.83878638 14.01396965 17.97220243 17.92825081 22.36230469 22.48730469 C24.83198736 24.77541391 27.34810669 26.92408351 30 29 C28.52205876 32.67466265 26.53467739 34.1812031 23.4375 36.5625 C19.2544104 40.53107219 18.42800898 43.64405566 18.0078125 49.1796875 C17.91174095 53.1186211 17.97244749 57.05999131 18 61 C12.06 61 6.12 61 0 61 C0 60.67 0 60.34 0 60 C5.61 60 11.22 60 17 60 C16.34 59.34 15.68 58.68 15 58 C14.09595881 52.11081739 12.9727711 44.63961559 15.99023438 39.22216797 C18.56027811 35.97935376 21.6675539 33.42197422 25 31 C23.62028029 27.71793947 22.261858 26.42741241 19.375 24.4375 C16.3274373 21.59815587 15.75900863 19.34415338 15.54296875 15.3203125 C15.48632991 10.53433092 15.69943048 5.77571566 16 1 C10.72 1 5.44 1 0 1 C0 0.67 0 0.34 0 0 Z " fill="#439E73" transform="translate(63,20)"/>
<path d="M0 0 C0.66 0.66 1.32 1.32 2 2 C2.33 1.67 2.66 1.34 3 1 C3.45890625 1.40992188 3.9178125 1.81984375 4.390625 2.2421875 C5.31101562 3.05042969 5.31101562 3.05042969 6.25 3.875 C6.85328125 4.40867187 7.4565625 4.94234375 8.078125 5.4921875 C11.53400861 8.20351082 14.38530773 9.23988009 18.75 9.625 C19.54921875 9.69976562 20.3484375 9.77453125 21.171875 9.8515625 C21.77515625 9.90054688 22.3784375 9.94953125 23 10 C22.01 10.495 22.01 10.495 21 11 C21.33 12.32 21.66 13.64 22 15 C20.68 15.33 19.36 15.66 18 16 C20.64 16 23.28 16 26 16 C26 16.33 26 16.66 26 17 C16.99961635 17.9567337 10.52818281 16.01149379 3 11 C0.4278104 8.75879068 -1.09344384 6.88707076 -3 4 C-2.67 3.01 -2.34 2.02 -2 1 C-1.34 0.67 -0.68 0.34 0 0 Z " fill="#284F8D" transform="translate(29,61)"/>
<path d="M0 0 C4.95 0 9.9 0 15 0 C15 0.66 15 1.32 15 2 C13.42578125 3.2265625 13.42578125 3.2265625 11.3125 4.625 C6.93301521 7.76764983 4.49369798 11.27636055 2 16 C0 14 0 14 -0.1953125 10.7421875 C-0.13020833 7.16145833 -0.06510417 3.58072917 0 0 Z " fill="#FAFBFC" transform="translate(23,23)"/>
<path d="M0 0 C0.33 0 0.66 0 1 0 C1 4.62 1 9.24 1 14 C-3.62 14 -8.24 14 -13 14 C-10.29412665 9.49021108 -8.95236459 8.0113254 -5 5 C-4.0925 4.0925 -3.185 3.185 -2.25 2.25 C-1.5075 1.5075 -0.765 0.765 0 0 Z " fill="#FAFBFC" transform="translate(76,63)"/>
<path d="M0 0 C0.33 0 0.66 0 1 0 C1 5.94 1 11.88 1 18 C-1.5575 17.9175 -4.115 17.835 -6.75 17.75 C-13.00333198 17.83848203 -16.87373828 18.94208186 -21.38964844 23.36230469 C-22.89344412 25.01410802 -24.34627025 26.69513143 -25.77734375 28.41015625 C-26.51082031 29.26480469 -27.24429688 30.11945313 -28 31 C-28.66 31 -29.32 31 -30 31 C-30 30.01 -30 29.02 -30 28 C-29.34 28 -28.68 28 -28 28 C-27.731875 27.42765625 -27.46375 26.8553125 -27.1875 26.265625 C-24.84449855 21.79542486 -22.45939461 18.51740018 -18 16 C-12.06120823 14.99572534 -5.97177953 15.54063234 0 16 C0 10.72 0 5.44 0 0 Z " fill="#349668" transform="translate(79,62)"/>
<path d="M0 0 C0.33 0.66 0.66 1.32 1 2 C8.26 2 15.52 2 23 2 C23 2.66 23 3.32 23 4 C16.73 4 10.46 4 4 4 C4 10.27 4 16.54 4 23 C3.34 22.34 2.68 21.68 2 21 C1.34 21.33 0.68 21.66 0 22 C0 14.74 0 7.48 0 0 Z " fill="#1A439B" transform="translate(14,14)"/>
<path d="M0 0 C5.61 0 11.22 0 17 0 C17 0.33 17 0.66 17 1 C12.05 1 7.1 1 2 1 C2.11601562 2.18335938 2.23203125 3.36671875 2.3515625 4.5859375 C3.25741794 17.93107883 3.25741794 17.93107883 -0.15625 22.421875 C-6.77239884 29 -6.77239884 29 -10 29 C-10.33 29.66 -10.66 30.32 -11 31 C-11.33 30.01 -11.66 29.02 -12 28 C-11.21753906 27.40316406 -10.43507813 26.80632813 -9.62890625 26.19140625 C-4.88633164 22.24404965 -0.95915123 18.83829893 -0.046875 12.484375 C0.32489967 8.28312861 0.1023124 4.26301685 0 0 Z " fill="#349668" transform="translate(20,20)"/>
<path d="M0 0 C0.9075 0.185625 1.815 0.37125 2.75 0.5625 C5.68314324 0.95734621 7.2644657 0.94691572 10 0 C10.66 1.65 11.32 3.3 12 5 C11.34 5.66 10.68 6.32 10 7 C10 8.32 10 9.64 10 11 C7.03 10.67 4.06 10.34 1 10 C1 8.68 1 7.36 1 6 C0.01 5.67 -0.98 5.34 -2 5 C-1.34 3.35 -0.68 1.7 0 0 Z " fill="#DCCE92" transform="translate(45,51)"/>
<path d="M0 0 C18.26492326 -1.91909186 18.26492326 -1.91909186 23.63671875 2.4140625 C25.60660349 4.33548915 27.19309443 6.31849504 28.90625 8.49609375 C30.75026203 11.12168202 30.75026203 11.12168202 33.28125 11.84765625 C33.8484375 11.89792969 34.415625 11.94820312 35 12 C34.34 13.65 33.68 15.3 33 17 C28.99060757 15.38669686 26.24326219 12.57540302 23.25 9.5625 C22.74339844 9.07201172 22.23679687 8.58152344 21.71484375 8.07617188 C20.4140692 6.77715039 19.20011632 5.39254877 18 4 C18 3.01 18 2.02 18 1 C12.06 1 6.12 1 0 1 C0 0.67 0 0.34 0 0 Z " fill="#073494" transform="translate(18,83)"/>
<path d="M0 0 C4 0 4 0 5.78125 1.609375 C6.3484375 2.31578125 6.915625 3.0221875 7.5 3.75 C9.4216126 6.08899512 11.26512988 8.25833168 13.4375 10.375 C15 12 15 12 15 14 C14.34 14 13.68 14 13 14 C13 19.61 13 25.22 13 31 C18.94 31 24.88 31 31 31 C31 31.33 31 31.66 31 32 C24.73 32 18.46 32 12 32 C12.0928125 27.6378125 12.0928125 27.6378125 12.1875 23.1875 C12.08627866 16.88377934 11.49059844 12.4523496 6.99536133 7.82739258 C4.72902253 5.80541063 2.35339857 3.91916358 0 2 C0 1.34 0 0.68 0 0 Z " fill="#55A780" transform="translate(7,49)"/>
<path d="M0 0 C0.33 0.66 0.66 1.32 1 2 C1.99 2.33 2.98 2.66 4 3 C4.33 5.31 4.66 7.62 5 10 C5.66 9.67 6.32 9.34 7 9 C6.625 10.9375 6.625 10.9375 6 13 C3.15916359 14.42041821 1.14522722 14.31452272 -2 14 C-4.4375 12.25 -4.4375 12.25 -6 10 C-5.75 7.75 -5.75 7.75 -5 6 C-4.67 7.65 -4.34 9.3 -4 11 C-3.01 11 -2.02 11 -1 11 C-1.66 10.67 -2.32 10.34 -3 10 C-2.67 7.69 -2.34 5.38 -2 3 C-1.34 3 -0.68 3 0 3 C0 2.01 0 1.02 0 0 Z " fill="#CFE4DB" transform="translate(49,36)"/>
<path d="M0 0 C3.75141972 1.72596832 5.71625121 3.49281436 8 7 C8.25 9.8125 8.25 9.8125 8 12 C6.68 12.33 5.36 12.66 4 13 C3.67 10.36 3.34 7.72 3 5 C1.67364735 4.8880801 1.67364735 4.8880801 0 6.8125 C-2.19941932 8.92032952 -2.19941932 8.92032952 -3 12 C-2.34 12 -1.68 12 -1 12 C-0.34 11.34 0.32 10.68 1 10 C1 10.99 1 11.98 1 13 C1.66 13.33 2.32 13.66 3 14 C0.69 13.67 -1.62 13.34 -4 13 C-5.375 10.4375 -5.375 10.4375 -6 7 C-4.3469271 4.31107298 -2.27624651 2.17336531 0 0 Z " fill="#ECF4F1" transform="translate(49,34)"/>
<path d="M0 0 C0.66 0 1.32 0 2 0 C2.66 0.99 3.32 1.98 4 3 C4.66 3.33 5.32 3.66 6 4 C0.80766042 7.57694505 -2.38782655 9.13661381 -8.6875 9.0625 C-9.68136719 9.05347656 -10.67523438 9.04445313 -11.69921875 9.03515625 C-12.83810547 9.01775391 -12.83810547 9.01775391 -14 9 C-13.67 8.34 -13.34 7.68 -13 7 C-12.01 7.33 -11.02 7.66 -10 8 C-10.33 6.68 -10.66 5.36 -11 4 C-4.375 2.875 -4.375 2.875 -1 4 C-1 4.66 -1 5.32 -1 6 C-0.34 6 0.32 6 1 6 C0.34 4.35 -0.32 2.7 -1 1 C-0.67 0.67 -0.34 0.34 0 0 Z " fill="#063293" transform="translate(61,68)"/>
<path d="M0 0 C0.33 0 0.66 0 1 0 C2.24581251 4.82752346 3.29771645 11.40456709 1 16 C-0.65 16 -2.3 16 -4 16 C-3.67 15.01 -3.34 14.02 -3 13 C-2.34 13 -1.68 13 -1 13 C-0.67 12.01 -0.34 11.02 0 10 C-0.99 10 -1.98 10 -3 10 C-3.66 10.99 -4.32 11.98 -5 13 C-5.125 5.25 -5.125 5.25 -4 3 C-2.68 3 -1.36 3 0 3 C0 2.01 0 1.02 0 0 Z " fill="#2E5291" transform="translate(76,40)"/>
<path d="M0 0 C3.45201639 1.47721422 5.64961936 3.43794001 8.25 6.125 C8.95640625 6.84945313 9.6628125 7.57390625 10.390625 8.3203125 C11.18726563 9.15175781 11.18726563 9.15175781 12 10 C10.74458443 12.51083114 9.49936512 12.87125446 7 14 C0.70535714 8.64285714 0.70535714 8.64285714 0.125 3.625 C0.08375 2.42875 0.0425 1.2325 0 0 Z " fill="#11257B" transform="translate(52,0)"/>
<path d="M0 0 C1.98 0 3.96 0 6 0 C5.01 0.495 5.01 0.495 4 1 C4.33 2.32 4.66 3.64 5 5 C3.68 5.33 2.36 5.66 1 6 C3.64 6 6.28 6 9 6 C9 6.33 9 6.66 9 7 C7.27119018 7.05449838 5.54187288 7.09301688 3.8125 7.125 C2.84957031 7.14820312 1.88664062 7.17140625 0.89453125 7.1953125 C-2.12812778 6.9913544 -4.26769985 6.26874632 -7 5 C-6.34 3.68 -5.68 2.36 -5 1 C-3.68 1.33 -2.36 1.66 -1 2 C-0.67 1.34 -0.34 0.68 0 0 Z " fill="#3D6099" transform="translate(46,71)"/>
<path d="M0 0 C0.9796875 0.0515625 1.959375 0.103125 2.96875 0.15625 C4.49242188 0.25292969 4.49242188 0.25292969 6.046875 0.3515625 C7.59375 0.43664063 7.59375 0.43664063 9.171875 0.5234375 C11.71426705 0.6646815 14.25563738 0.81606996 16.796875 0.9765625 C16.796875 1.3065625 16.796875 1.6365625 16.796875 1.9765625 C9.536875 1.9765625 2.276875 1.9765625 -5.203125 1.9765625 C-5.203125 2.6365625 -5.203125 3.2965625 -5.203125 3.9765625 C1.066875 3.9765625 7.336875 3.9765625 13.796875 3.9765625 C13.796875 4.3065625 13.796875 4.6365625 13.796875 4.9765625 C3.401875 5.4715625 3.401875 5.4715625 -7.203125 5.9765625 C-7.863125 4.6565625 -8.523125 3.3365625 -9.203125 1.9765625 C-5.96373384 0.0395388 -3.7428729 -0.21760889 0 0 Z " fill="#0946A6" transform="translate(69.203125,11.0234375)"/>
<path d="M0 0 C1.98738098 0.01761863 3.97253109 0.16698176 5.953125 0.33203125 C4.963125 1.81703125 4.963125 1.81703125 3.953125 3.33203125 C4.2653014 5.97835412 4.2653014 5.97835412 4.953125 8.33203125 C4.293125 8.33203125 3.633125 8.33203125 2.953125 8.33203125 C2.953125 7.67203125 2.953125 7.01203125 2.953125 6.33203125 C-0.016875 6.00203125 -2.986875 5.67203125 -6.046875 5.33203125 C-3.15469741 0.51173527 -3.15469741 0.51173527 0 0 Z " fill="#338673" transform="translate(57.046875,65.66796875)"/>
<path d="M0 0 C0.66 0.66 1.32 1.32 2 2 C2.33 1.67 2.66 1.34 3 1 C4.41377341 3.63904371 5.37240135 6.07120629 6 9 C5.01 9.66 4.02 10.32 3 11 C1.96704564 9.90716423 0.94892165 8.80029421 -0.0625 7.6875 C-0.63097656 7.07261719 -1.19945313 6.45773438 -1.78515625 5.82421875 C-2.38650391 4.92123047 -2.38650391 4.92123047 -3 4 C-2.67 3.01 -2.34 2.02 -2 1 C-1.34 0.67 -0.68 0.34 0 0 Z " fill="#395D8D" transform="translate(29,61)"/>
<path d="M0 0 C0 0.99 0 1.98 0 3 C-1.62619617 4.31630398 -3.27642938 5.602988 -4.9375 6.875 C-9.73692605 11.3968852 -10.66537608 14.666813 -11.06079102 21.20751953 C-11.15476426 25.47740664 -11.16139499 29.73186814 -11 34 C-11.33 34 -11.66 34 -12 34 C-14.08641975 13.95967078 -14.08641975 13.95967078 -9.328125 7.8671875 C-6.48536149 4.87363243 -3.36900417 2.37635116 0 0 Z " fill="#002772" transform="translate(99,52)"/>
<path d="M0 0 C0.33 0 0.66 0 1 0 C3.08641975 20.04032922 3.08641975 20.04032922 -1.671875 26.1328125 C-4.51463851 29.12636757 -7.63099583 31.62364884 -11 34 C-11 33.01 -11 32.02 -11 31 C-9.37380383 29.68369602 -7.72357062 28.397012 -6.0625 27.125 C-1.26307395 22.6031148 -0.33462392 19.333187 0.06079102 12.79248047 C0.15476426 8.52259336 0.16139499 4.26813186 0 0 Z " fill="#002775" transform="translate(12,14)"/>
<path d="M0 0 C0.33 0 0.66 0 1 0 C1 7.92 1 15.84 1 24 C1.66 24 2.32 24 3 24 C3 24.66 3 25.32 3 26 C3.66 26 4.32 26 5 26 C4.67 26.99 4.34 27.98 4 29 C1.69 27.02 -0.62 25.04 -3 23 C-2.01 22.67 -1.02 22.34 0 22 C0 14.74 0 7.48 0 0 Z " fill="#144FA0" transform="translate(87,14)"/>
<path d="M0 0 C1.32 0.33 2.64 0.66 4 1 C3.67 2.32 3.34 3.64 3 5 C2.34 5 1.68 5 1 5 C0.67 5.66 0.34 6.32 0 7 C1.65 7 3.3 7 5 7 C4.67 8.32 4.34 9.64 4 11 C3.67 10.34 3.34 9.68 3 9 C2.01 9.495 2.01 9.495 1 10 C1.33 10.66 1.66 11.32 2 12 C0.68 11.67 -0.64 11.34 -2 11 C-1 3.57142857 -1 3.57142857 0 0 Z " fill="#0C3792" transform="translate(72,49)"/>
<path d="M0 0 C0.99 0 1.98 0 3 0 C3 0.66 3 1.32 3 2 C2.01 2.495 2.01 2.495 1 3 C1.66 3.33 2.32 3.66 3 4 C3 5.32 3 6.64 3 8 C0.03 7.67 -2.94 7.34 -6 7 C-6.33 5.35 -6.66 3.7 -7 2 C-5.68 2.33 -4.36 2.66 -3 3 C-3 3.66 -3 4.32 -3 5 C-2.34 5 -1.68 5 -1 5 C-0.67 3.35 -0.34 1.7 0 0 Z " fill="#AFA98F" transform="translate(52,54)"/>
<path d="M0 0 C0 0.99 0 1.98 0 3 C2.31 3.33 4.62 3.66 7 4 C3.57905758 6.28062828 2.31812778 6.21925007 -1.6875 6.125 C-3.17830078 6.09792969 -3.17830078 6.09792969 -4.69921875 6.0703125 C-5.45847656 6.04710938 -6.21773437 6.02390625 -7 6 C-6.67 5.34 -6.34 4.68 -6 4 C-5.01 4.33 -4.02 4.66 -3 5 C-3.33 3.68 -3.66 2.36 -4 1 C-2 0 -2 0 0 0 Z " fill="#1A428E" transform="translate(54,71)"/>
<path d="M0 0 C0.66 0 1.32 0 2 0 C1.67 2.64 1.34 5.28 1 8 C0.01 8 -0.98 8 -2 8 C-2.33 9.65 -2.66 11.3 -3 13 C-3.33 13 -3.66 13 -4 13 C-4 9.37 -4 5.74 -4 2 C-3.67 2.99 -3.34 3.98 -3 5 C-2.54625 4.175 -2.0925 3.35 -1.625 2.5 C-1.08875 1.675 -0.5525 0.85 0 0 Z " fill="#658091" transform="translate(26,42)"/>
<path d="M0 0 C0.33 1.32 0.66 2.64 1 4 C0.01 4.66 -0.98 5.32 -2 6 C-1.34 6.33 -0.68 6.66 0 7 C0 7.99 0 8.98 0 10 C-0.99 10 -1.98 10 -3 10 C-3.66 10.99 -4.32 11.98 -5 13 C-5.125 5.25 -5.125 5.25 -4 3 C-2.68 3 -1.36 3 0 3 C0 2.01 0 1.02 0 0 Z " fill="#537884" transform="translate(76,40)"/>
<path d="M0 0 C0.33 0.99 0.66 1.98 1 3 C1.99 3.33 2.98 3.66 4 4 C3.34 5.32 2.68 6.64 2 8 C0.68 8 -0.64 8 -2 8 C-2.66 6.35 -3.32 4.7 -4 3 C-2.68 2.01 -1.36 1.02 0 0 Z " fill="#2C528D" transform="translate(66,64)"/>
<path d="M0 0 C2 3 2 3 2 5 C3.8871875 5.061875 3.8871875 5.061875 5.8125 5.125 C6.52019531 5.14820313 7.22789063 5.17140625 7.95703125 5.1953125 C10.31359719 5.13254462 10.31359719 5.13254462 13 3 C12.625 4.9375 12.625 4.9375 12 7 C9.15916359 8.42041821 7.14522722 8.31452272 4 8 C1.625 6.25 1.625 6.25 0 4 C0 2.68 0 1.36 0 0 Z " fill="#65AF8C" transform="translate(43,42)"/>
<path d="M0 0 C3.16115776 1.36983503 3.9927092 1.9890638 6 5 C6.125 7.6875 6.125 7.6875 6 10 C4.68 10.33 3.36 10.66 2 11 C1.77213542 9.01432292 1.54427083 7.02864583 1.31640625 5.04296875 C1.02829265 2.80603607 1.02829265 2.80603607 0 0 Z " fill="#DEECE5" transform="translate(51,36)"/>
<path d="M0 0 C0.99 0 1.98 0 3 0 C3.66 1.98 4.32 3.96 5 6 C3.35 6.66 1.7 7.32 0 8 C-0.98120464 4.94736336 -0.98120464 3.05263664 0 0 Z " fill="#557487" transform="translate(24,53)"/>
<path d="M0 0 C1.32 0.33 2.64 0.66 4 1 C4 2.65 4 4.3 4 6 C2.35 6 0.7 6 -1 6 C-1.33 5.34 -1.66 4.68 -2 4 C-1.0625 1.875 -1.0625 1.875 0 0 Z " fill="#E1D5A3" transform="translate(45,51)"/>
<path d="M0 0 C0.66 0 1.32 0 2 0 C2 2.31 2 4.62 2 7 C0.68 7 -0.64 7 -2 7 C-2.33 8.32 -2.66 9.64 -3 11 C-3 8.36 -3 5.72 -3 3 C-1.68 3.33 -0.36 3.66 1 4 C0.67 2.68 0.34 1.36 0 0 Z " fill="#032D93" transform="translate(26,46)"/>
<path d="M0 0 C0 3 0 3 -1.2421875 4.60546875 C-1.78101563 5.12753906 -2.31984375 5.64960938 -2.875 6.1875 C-3.40867187 6.71730469 -3.94234375 7.24710938 -4.4921875 7.79296875 C-6 9 -6 9 -8 9 C-6.4169423 4.7257442 -3.49431596 2.73468206 0 0 Z " fill="#1E459C" transform="translate(35,26)"/>
<path d="M0 0 C0.99 0 1.98 0 3 0 C4 3 4 3 3.0625 5.1875 C2.5365625 6.0846875 2.5365625 6.0846875 2 7 C0.68 6.67 -0.64 6.34 -2 6 C-1.67 5.01 -1.34 4.02 -1 3 C-0.34 2.67 0.32 2.34 1 2 C0.67 1.34 0.34 0.68 0 0 Z " fill="#446488" transform="translate(72,58)"/>
<path d="M0 0 C2.31 0.66 4.62 1.32 7 2 C6.34 3.32 5.68 4.64 5 6 C5 5.01 5 4.02 5 3 C1.88214887 3.64644661 1.88214887 3.64644661 1 6 C0.34 5.67 -0.32 5.34 -1 5 C-0.67 3.35 -0.34 1.7 0 0 Z " fill="#073391" transform="translate(39,69)"/>
<path d="M0 0 C0.33 0 0.66 0 1 0 C1 7.26 1 14.52 1 22 C0.67 22 0.34 22 0 22 C0 14.74 0 7.48 0 0 Z " fill="#0051A2" transform="translate(12,64)"/>
<path d="M0 0 C0.33 0.66 0.66 1.32 1 2 C1.66 2 2.32 2 3 2 C3 2.66 3 3.32 3 4 C3.66 4 4.32 4 5 4 C4.34 5.32 3.68 6.64 3 8 C2.01 7.34 1.02 6.68 0 6 C-0.1875 2.875 -0.1875 2.875 0 0 Z " fill="#2D54A5" transform="translate(53,2)"/>
<path d="M0 0 C1.23556641 0.01740234 1.23556641 0.01740234 2.49609375 0.03515625 C3.32238281 0.04417969 4.14867187 0.05320313 5 0.0625 C5.63808594 0.07410156 6.27617188 0.08570313 6.93359375 0.09765625 C6.93359375 0.75765625 6.93359375 1.41765625 6.93359375 2.09765625 C4.18359375 3.28515625 4.18359375 3.28515625 0.93359375 4.09765625 C-1.44140625 2.72265625 -1.44140625 2.72265625 -3.06640625 1.09765625 C-2.06640625 0.09765625 -2.06640625 0.09765625 0 0 Z " fill="#E8F0E8" transform="translate(48.06640625,48.90234375)"/>
<path d="M0 0 C1.98 0 3.96 0 6 0 C5.01 0.495 5.01 0.495 4 1 C4.33 2.32 4.66 3.64 5 5 C4.01 5 3.02 5 2 5 C1.34 3.35 0.68 1.7 0 0 Z " fill="#3F6A84" transform="translate(46,71)"/>
<path d="M0 0 C0.33 0.66 0.66 1.32 1 2 C1.99 2.33 2.98 2.66 4 3 C4.33 4.98 4.66 6.96 5 9 C2.5 6.75 2.5 6.75 0 4 C0 2.68 0 1.36 0 0 Z " fill="#BBDACC" transform="translate(49,36)"/>
<path d="" fill="#0055AA" transform="translate(0,0)"/>
<path d="" fill="#005555" transform="translate(0,0)"/>
<path d="" fill="#0055AA" transform="translate(0,0)"/>
<path d="" fill="#005555" transform="translate(0,0)"/>
<path d="" fill="#0055AA" transform="translate(0,0)"/>
<path d="" fill="#005555" transform="translate(0,0)"/>
<path d="" fill="#0055AA" transform="translate(0,0)"/>
<path d="" fill="#005555" transform="translate(0,0)"/>
<path d="" fill="#0055AA" transform="translate(0,0)"/>
<path d="" fill="#005555" transform="translate(0,0)"/>
<path d="" fill="#0055AA" transform="translate(0,0)"/>
<path d="" fill="#005555" transform="translate(0,0)"/>
<path d="" fill="#0055AA" transform="translate(0,0)"/>
<path d="" fill="#005555" transform="translate(0,0)"/>
<path d="" fill="#0055AA" transform="translate(0,0)"/>
<path d="" fill="#005555" transform="translate(0,0)"/>
<path d="" fill="#0000AA" transform="translate(0,0)"/>
<path d="" fill="#005555" transform="translate(0,0)"/>
<path d="" fill="#0055AA" transform="translate(0,0)"/>
<path d="" fill="#005555" transform="translate(0,0)"/>
<path d="" fill="#0055AA" transform="translate(0,0)"/>
<path d="" fill="#005555" transform="translate(0,0)"/>
<path d="" fill="#0055AA" transform="translate(0,0)"/>
<path d="" fill="#007F7F" transform="translate(0,0)"/>
</svg>
